<mxfile host="app.diagrams.net" agent="Mozilla/5.0 (X11; Linux x86_64) AppleWebKit/537.36 (KHTML, like Gecko) Chrome/130.0.0.0 Safari/537.36" version="25.0.3">
  <diagram name="Страница — 1" id="6RRGArd5ejupmYxC7On3">
    <mxGraphModel dx="2275" dy="1148" grid="1" gridSize="10" guides="1" tooltips="1" connect="1" arrows="1" fold="1" page="1" pageScale="1" pageWidth="827" pageHeight="1169" math="0" shadow="0">
      <root>
        <mxCell id="0" />
        <mxCell id="1" parent="0" />
        <mxCell id="istmoqi0lhrLaOZ3RUV9-29" value="" style="rounded=0;whiteSpace=wrap;html=1;strokeColor=none;" vertex="1" parent="1">
          <mxGeometry x="107.75" y="40" width="611" height="980" as="geometry" />
        </mxCell>
        <mxCell id="istmoqi0lhrLaOZ3RUV9-6" style="edgeStyle=orthogonalEdgeStyle;rounded=0;orthogonalLoop=1;jettySize=auto;html=1;exitX=0.5;exitY=1;exitDx=0;exitDy=0;entryX=0.5;entryY=0;entryDx=0;entryDy=0;" edge="1" parent="1" source="istmoqi0lhrLaOZ3RUV9-1" target="istmoqi0lhrLaOZ3RUV9-23">
          <mxGeometry relative="1" as="geometry">
            <mxPoint x="413.255" y="290.0000000000001" as="targetPoint" />
          </mxGeometry>
        </mxCell>
        <mxCell id="istmoqi0lhrLaOZ3RUV9-1" value="&lt;div style=&quot;&quot;&gt;&lt;font style=&quot;font-size: 14px;&quot;&gt;&lt;b style=&quot;background-color: initial;&quot;&gt;Conv2D&lt;/b&gt;&lt;span style=&quot;background-color: initial;&quot;&gt;&lt;b&gt;(&lt;/b&gt;&lt;/span&gt;&lt;/font&gt;&lt;/div&gt;&lt;div style=&quot;&quot;&gt;&lt;i&gt;&lt;font style=&quot;font-size: 14px;&quot;&gt;out_channels=16,&lt;/font&gt;&lt;/i&gt;&lt;/div&gt;&lt;div style=&quot;&quot;&gt;&lt;i&gt;&lt;font style=&quot;font-size: 14px;&quot;&gt;kernel_size=2x2,&lt;/font&gt;&lt;/i&gt;&lt;/div&gt;&lt;div style=&quot;&quot;&gt;&lt;font style=&quot;font-size: 14px;&quot;&gt;&lt;i style=&quot;&quot;&gt;stride=1&lt;/i&gt;&lt;span style=&quot;background-color: initial;&quot;&gt;&lt;b style=&quot;&quot;&gt;)&lt;/b&gt;&lt;/span&gt;&lt;/font&gt;&lt;/div&gt;" style="rounded=1;whiteSpace=wrap;html=1;" vertex="1" parent="1">
          <mxGeometry x="298.25" y="180" width="230" height="80" as="geometry" />
        </mxCell>
        <mxCell id="istmoqi0lhrLaOZ3RUV9-3" style="edgeStyle=orthogonalEdgeStyle;rounded=0;orthogonalLoop=1;jettySize=auto;html=1;exitX=0.5;exitY=1;exitDx=0;exitDy=0;entryX=0.5;entryY=0;entryDx=0;entryDy=0;" edge="1" parent="1" source="istmoqi0lhrLaOZ3RUV9-2" target="istmoqi0lhrLaOZ3RUV9-1">
          <mxGeometry relative="1" as="geometry" />
        </mxCell>
        <mxCell id="istmoqi0lhrLaOZ3RUV9-2" value="&lt;font style=&quot;font-size: 14px;&quot;&gt;Input_data = (batch, 28, 28)&lt;/font&gt;" style="rounded=1;whiteSpace=wrap;html=1;" vertex="1" parent="1">
          <mxGeometry x="309" y="90" width="209" height="30" as="geometry" />
        </mxCell>
        <mxCell id="istmoqi0lhrLaOZ3RUV9-11" style="edgeStyle=orthogonalEdgeStyle;rounded=0;orthogonalLoop=1;jettySize=auto;html=1;exitX=0.5;exitY=1;exitDx=0;exitDy=0;entryX=0.5;entryY=0;entryDx=0;entryDy=0;" edge="1" parent="1" source="istmoqi0lhrLaOZ3RUV9-8" target="istmoqi0lhrLaOZ3RUV9-9">
          <mxGeometry relative="1" as="geometry" />
        </mxCell>
        <mxCell id="istmoqi0lhrLaOZ3RUV9-8" value="&lt;span style=&quot;font-size: 14px;&quot;&gt;MaxPool(2x2)&lt;/span&gt;" style="rounded=1;whiteSpace=wrap;html=1;" vertex="1" parent="1">
          <mxGeometry x="314" y="510" width="200" height="30" as="geometry" />
        </mxCell>
        <mxCell id="istmoqi0lhrLaOZ3RUV9-20" style="edgeStyle=orthogonalEdgeStyle;rounded=0;orthogonalLoop=1;jettySize=auto;html=1;exitX=0.5;exitY=1;exitDx=0;exitDy=0;entryX=0.5;entryY=0;entryDx=0;entryDy=0;" edge="1" parent="1" source="istmoqi0lhrLaOZ3RUV9-9" target="istmoqi0lhrLaOZ3RUV9-13">
          <mxGeometry relative="1" as="geometry" />
        </mxCell>
        <mxCell id="istmoqi0lhrLaOZ3RUV9-9" value="&lt;span style=&quot;font-size: 14px;&quot;&gt;Flatten()&lt;/span&gt;" style="rounded=1;whiteSpace=wrap;html=1;" vertex="1" parent="1">
          <mxGeometry x="214" y="600" width="400" height="30" as="geometry" />
        </mxCell>
        <mxCell id="istmoqi0lhrLaOZ3RUV9-21" style="edgeStyle=orthogonalEdgeStyle;rounded=0;orthogonalLoop=1;jettySize=auto;html=1;exitX=0.5;exitY=1;exitDx=0;exitDy=0;entryX=0.5;entryY=0;entryDx=0;entryDy=0;" edge="1" parent="1" source="istmoqi0lhrLaOZ3RUV9-13" target="istmoqi0lhrLaOZ3RUV9-14">
          <mxGeometry relative="1" as="geometry" />
        </mxCell>
        <mxCell id="istmoqi0lhrLaOZ3RUV9-13" value="&lt;span style=&quot;font-size: 14px;&quot;&gt;Linear(1152, 256)&lt;/span&gt;" style="rounded=1;whiteSpace=wrap;html=1;" vertex="1" parent="1">
          <mxGeometry x="229" y="710" width="370" height="30" as="geometry" />
        </mxCell>
        <mxCell id="istmoqi0lhrLaOZ3RUV9-22" style="edgeStyle=orthogonalEdgeStyle;rounded=0;orthogonalLoop=1;jettySize=auto;html=1;exitX=0.5;exitY=1;exitDx=0;exitDy=0;entryX=0.5;entryY=0;entryDx=0;entryDy=0;" edge="1" parent="1" source="istmoqi0lhrLaOZ3RUV9-14" target="istmoqi0lhrLaOZ3RUV9-30">
          <mxGeometry relative="1" as="geometry">
            <mxPoint x="413.25" y="950" as="targetPoint" />
          </mxGeometry>
        </mxCell>
        <mxCell id="istmoqi0lhrLaOZ3RUV9-38" value="" style="edgeStyle=orthogonalEdgeStyle;rounded=0;orthogonalLoop=1;jettySize=auto;html=1;" edge="1" parent="1" source="istmoqi0lhrLaOZ3RUV9-14" target="istmoqi0lhrLaOZ3RUV9-30">
          <mxGeometry relative="1" as="geometry" />
        </mxCell>
        <mxCell id="istmoqi0lhrLaOZ3RUV9-14" value="&lt;span style=&quot;font-size: 14px;&quot;&gt;Linear(256, embedding_shape)&lt;/span&gt;" style="rounded=1;whiteSpace=wrap;html=1;" vertex="1" parent="1">
          <mxGeometry x="289.75" y="840" width="248.5" height="30" as="geometry" />
        </mxCell>
        <mxCell id="istmoqi0lhrLaOZ3RUV9-33" style="edgeStyle=orthogonalEdgeStyle;rounded=0;orthogonalLoop=1;jettySize=auto;html=1;exitX=0.5;exitY=1;exitDx=0;exitDy=0;entryX=0.5;entryY=0;entryDx=0;entryDy=0;" edge="1" parent="1" source="istmoqi0lhrLaOZ3RUV9-23" target="istmoqi0lhrLaOZ3RUV9-8">
          <mxGeometry relative="1" as="geometry" />
        </mxCell>
        <mxCell id="istmoqi0lhrLaOZ3RUV9-23" value="&lt;div style=&quot;&quot;&gt;&lt;font style=&quot;font-size: 14px;&quot;&gt;&lt;b style=&quot;background-color: initial;&quot;&gt;Conv2D&lt;/b&gt;&lt;span style=&quot;background-color: initial;&quot;&gt;&lt;b&gt;(&lt;/b&gt;&lt;/span&gt;&lt;/font&gt;&lt;/div&gt;&lt;div style=&quot;&quot;&gt;&lt;i&gt;&lt;font style=&quot;font-size: 14px;&quot;&gt;out_channels=32,&lt;/font&gt;&lt;/i&gt;&lt;/div&gt;&lt;div style=&quot;&quot;&gt;&lt;i&gt;&lt;font style=&quot;font-size: 14px;&quot;&gt;kernel_size=3x3,&lt;/font&gt;&lt;/i&gt;&lt;/div&gt;&lt;div style=&quot;&quot;&gt;&lt;font style=&quot;font-size: 14px;&quot;&gt;&lt;i style=&quot;&quot;&gt;stride=2&lt;/i&gt;&lt;span style=&quot;background-color: initial;&quot;&gt;&lt;b style=&quot;&quot;&gt;)&lt;/b&gt;&lt;/span&gt;&lt;/font&gt;&lt;/div&gt;" style="rounded=1;whiteSpace=wrap;html=1;" vertex="1" parent="1">
          <mxGeometry x="299" y="350" width="230" height="80" as="geometry" />
        </mxCell>
        <mxCell id="istmoqi0lhrLaOZ3RUV9-30" value="&lt;span style=&quot;font-size: 14px;&quot;&gt;output&lt;/span&gt;" style="rounded=1;whiteSpace=wrap;html=1;" vertex="1" parent="1">
          <mxGeometry x="289" y="940" width="248.5" height="30" as="geometry" />
        </mxCell>
        <mxCell id="istmoqi0lhrLaOZ3RUV9-32" value="&lt;div&gt;DropOut&lt;/div&gt;BatchNorm&lt;div&gt;RReLU&lt;/div&gt;" style="text;html=1;align=center;verticalAlign=middle;whiteSpace=wrap;rounded=0;" vertex="1" parent="1">
          <mxGeometry x="414" y="450" width="104" height="40" as="geometry" />
        </mxCell>
        <mxCell id="istmoqi0lhrLaOZ3RUV9-34" value="&lt;div&gt;&lt;span style=&quot;background-color: initial;&quot;&gt;LeakyReLU&lt;/span&gt;&lt;/div&gt;" style="text;html=1;align=center;verticalAlign=middle;whiteSpace=wrap;rounded=0;" vertex="1" parent="1">
          <mxGeometry x="414" y="650" width="104" height="40" as="geometry" />
        </mxCell>
        <mxCell id="istmoqi0lhrLaOZ3RUV9-35" value="&lt;div&gt;DropOut&lt;/div&gt;BatchNorm&lt;div&gt;RReLU&lt;/div&gt;" style="text;html=1;align=center;verticalAlign=middle;whiteSpace=wrap;rounded=0;" vertex="1" parent="1">
          <mxGeometry x="414" y="290" width="104" height="40" as="geometry" />
        </mxCell>
        <mxCell id="istmoqi0lhrLaOZ3RUV9-36" value="&lt;div&gt;DropOut&lt;/div&gt;BatchNorm&lt;div&gt;LeakyRelu&lt;/div&gt;" style="text;html=1;align=center;verticalAlign=middle;whiteSpace=wrap;rounded=0;" vertex="1" parent="1">
          <mxGeometry x="414" y="770" width="104" height="40" as="geometry" />
        </mxCell>
        <mxCell id="istmoqi0lhrLaOZ3RUV9-39" value="&lt;div&gt;&lt;span style=&quot;background-color: initial;&quot;&gt;LeakyReLU&lt;/span&gt;&lt;/div&gt;" style="text;html=1;align=center;verticalAlign=middle;whiteSpace=wrap;rounded=0;" vertex="1" parent="1">
          <mxGeometry x="414" y="890" width="104" height="40" as="geometry" />
        </mxCell>
      </root>
    </mxGraphModel>
  </diagram>
</mxfile>
